<?xml version="1.0" encoding="UTF-8" standalone="no"?>
<svg
   xmlns:dc="http://purl.org/dc/elements/1.1/"
   xmlns:cc="http://creativecommons.org/ns#"
   xmlns:rdf="http://www.w3.org/1999/02/22-rdf-syntax-ns#"
   xmlns:svg="http://www.w3.org/2000/svg"
   xmlns="http://www.w3.org/2000/svg"
   id="svg1084"
   version="1.1"
   viewBox="0 0 7.9375003 7.9375001"
   height="30.000002"
   width="30.000002">
  <defs
     id="defs1078">
    <filter
       id="filter986-1"
       style="color-interpolation-filters:sRGB">
      <feFlood
         id="feFlood976-2"
         result="flood"
         flood-color="rgb(0,0,0)"
         flood-opacity="1" />
      <feComposite
         id="feComposite978-70"
         result="composite1"
         operator="in"
         in2="SourceGraphic"
         in="flood" />
      <feGaussianBlur
         id="feGaussianBlur980-9"
         result="blur"
         stdDeviation="1"
         in="composite1" />
      <feOffset
         id="feOffset982-36"
         result="offset"
         dy="0"
         dx="0" />
      <feComposite
         id="feComposite984-0"
         result="composite2"
         operator="over"
         in2="offset"
         in="SourceGraphic" />
    </filter>
  </defs>
  <metadata
     id="metadata1081">
    <rdf:RDF>
      <cc:Work
         rdf:about="">
        <dc:format>image/svg+xml</dc:format>
        <dc:type
           rdf:resource="http://purl.org/dc/dcmitype/StillImage" />
        <dc:title></dc:title>
      </cc:Work>
    </rdf:RDF>
  </metadata>
  <g
     transform="translate(491.55803,189.26636)"
     id="layer1">
    <circle
       transform="matrix(0.32457649,0,0,0.32457649,-489.86132,-187.56965)"
       r="10.18956"
       cy="7"
       cx="7"
       id="path867-62"
       style="color:#000000;display:inline;overflow:visible;visibility:visible;opacity:1;fill:#f03b20;fill-opacity:1;fill-rule:nonzero;stroke:#ffffff;stroke-width:2;stroke-linecap:round;stroke-linejoin:round;stroke-miterlimit:4;stroke-dasharray:none;stroke-dashoffset:0;stroke-opacity:1;marker:none;filter:url(#filter986-1);enable-background:accumulate" />
    <rect
       style="visibility:hidden;fill:none;stroke:none;stroke-width:0.26458332"
       id="canvas-6"
       y="-187.1497"
       x="-489.44138"
       height="3.7041667"
       width="3.7041667" />
    <path
       style="fill:#ffffff;fill-opacity:1;stroke:none;stroke-width:0.26458332"
       id="fire-station-1"
       d="m -487.58929,-187.1497 c -0.9461,0.32846 -1.32291,1.32291 -1.32291,2.11666 0,0.79375 0.46168,1.39165 1.05833,1.5875 -0.52917,-0.86216 -0.52917,-1.5875 0.26458,-2.11666 -0.13359,0.35793 0,1.05833 0.26459,1.32291 0.11415,-0.10603 0.26458,-0.37696 0.26458,-0.52916 0.52917,0.52916 0.14893,0.9613 0,1.32291 0.28792,-0.14793 0.79375,-0.52916 0.79375,-1.32291 0,-0.79375 -0.52917,-1.05834 -0.52917,-1.85209 -0.36605,0.15855 -0.52916,0.52917 -0.52916,0.79375 -0.2519,-0.14725 -0.52917,-0.72854 -0.26459,-1.32291 z" />
  </g>
</svg>
